<mxfile host="app.diagrams.net" modified="2023-11-09T21:09:38.154Z" agent="Mozilla/5.0 (Windows NT 10.0; Win64; x64) AppleWebKit/537.36 (KHTML, like Gecko) Chrome/119.0.0.0 Safari/537.36" etag="Tm36OWUZTBY6TLcSaRma" version="22.1.0" type="github">
  <diagram name="Page-1" id="CvHCoohPTtxOVz77Ymkh">
    <mxGraphModel dx="1750" dy="1082" grid="1" gridSize="10" guides="1" tooltips="1" connect="1" arrows="1" fold="1" page="1" pageScale="1" pageWidth="850" pageHeight="1100" math="0" shadow="0">
      <root>
        <mxCell id="0" />
        <mxCell id="1" parent="0" />
        <mxCell id="owy4EGWpPWJeNhBLW80_-42" value="Logiin" style="ellipse;whiteSpace=wrap;html=1;" vertex="1" parent="1">
          <mxGeometry x="80" y="490" width="100" height="40" as="geometry" />
        </mxCell>
        <mxCell id="owy4EGWpPWJeNhBLW80_-43" style="edgeStyle=none;shape=connector;rounded=0;orthogonalLoop=1;jettySize=auto;html=1;exitX=0.5;exitY=0.5;exitDx=0;exitDy=0;exitPerimeter=0;entryX=0;entryY=0.5;entryDx=0;entryDy=0;labelBackgroundColor=default;strokeColor=default;align=center;verticalAlign=middle;fontFamily=Helvetica;fontSize=11;fontColor=default;endArrow=none;" edge="1" parent="1" source="owy4EGWpPWJeNhBLW80_-46" target="owy4EGWpPWJeNhBLW80_-55">
          <mxGeometry relative="1" as="geometry" />
        </mxCell>
        <mxCell id="owy4EGWpPWJeNhBLW80_-44" style="edgeStyle=none;shape=connector;rounded=0;orthogonalLoop=1;jettySize=auto;html=1;exitX=0.5;exitY=0.5;exitDx=0;exitDy=0;exitPerimeter=0;labelBackgroundColor=default;strokeColor=default;align=center;verticalAlign=middle;fontFamily=Helvetica;fontSize=11;fontColor=default;endArrow=none;entryX=0.055;entryY=0.294;entryDx=0;entryDy=0;entryPerimeter=0;" edge="1" parent="1" source="owy4EGWpPWJeNhBLW80_-46" target="owy4EGWpPWJeNhBLW80_-76">
          <mxGeometry relative="1" as="geometry" />
        </mxCell>
        <mxCell id="owy4EGWpPWJeNhBLW80_-45" style="edgeStyle=none;shape=connector;rounded=0;orthogonalLoop=1;jettySize=auto;html=1;exitX=0.5;exitY=0.5;exitDx=0;exitDy=0;exitPerimeter=0;entryX=0;entryY=0.5;entryDx=0;entryDy=0;labelBackgroundColor=default;strokeColor=default;align=center;verticalAlign=middle;fontFamily=Helvetica;fontSize=11;fontColor=default;endArrow=none;" edge="1" parent="1" source="owy4EGWpPWJeNhBLW80_-46" target="owy4EGWpPWJeNhBLW80_-71">
          <mxGeometry relative="1" as="geometry" />
        </mxCell>
        <mxCell id="owy4EGWpPWJeNhBLW80_-46" value="Users" style="shape=umlActor;verticalLabelPosition=bottom;verticalAlign=top;html=1;outlineConnect=0;" vertex="1" parent="1">
          <mxGeometry x="240" y="340" width="30" height="60" as="geometry" />
        </mxCell>
        <mxCell id="owy4EGWpPWJeNhBLW80_-47" style="edgeStyle=none;shape=connector;rounded=0;orthogonalLoop=1;jettySize=auto;html=1;exitX=0.5;exitY=0.5;exitDx=0;exitDy=0;exitPerimeter=0;entryX=0;entryY=0.5;entryDx=0;entryDy=0;labelBackgroundColor=default;strokeColor=default;align=center;verticalAlign=middle;fontFamily=Helvetica;fontSize=11;fontColor=default;endArrow=none;" edge="1" parent="1" source="owy4EGWpPWJeNhBLW80_-48" target="owy4EGWpPWJeNhBLW80_-74">
          <mxGeometry relative="1" as="geometry" />
        </mxCell>
        <mxCell id="owy4EGWpPWJeNhBLW80_-48" value="Airline Agents" style="shape=umlActor;verticalLabelPosition=bottom;verticalAlign=top;html=1;outlineConnect=0;" vertex="1" parent="1">
          <mxGeometry x="240" y="550" width="30" height="60" as="geometry" />
        </mxCell>
        <mxCell id="owy4EGWpPWJeNhBLW80_-49" value="Tourism Agents" style="shape=umlActor;verticalLabelPosition=bottom;verticalAlign=top;html=1;outlineConnect=0;" vertex="1" parent="1">
          <mxGeometry x="240" y="660" width="30" height="60" as="geometry" />
        </mxCell>
        <mxCell id="owy4EGWpPWJeNhBLW80_-50" style="edgeStyle=none;shape=connector;rounded=0;orthogonalLoop=1;jettySize=auto;html=1;exitX=0.5;exitY=0.5;exitDx=0;exitDy=0;exitPerimeter=0;entryX=0;entryY=0.5;entryDx=0;entryDy=0;labelBackgroundColor=default;strokeColor=default;align=center;verticalAlign=middle;fontFamily=Helvetica;fontSize=11;fontColor=default;endArrow=none;" edge="1" parent="1" source="owy4EGWpPWJeNhBLW80_-51" target="owy4EGWpPWJeNhBLW80_-73">
          <mxGeometry relative="1" as="geometry" />
        </mxCell>
        <mxCell id="owy4EGWpPWJeNhBLW80_-51" value="Admin" style="shape=umlActor;verticalLabelPosition=bottom;verticalAlign=top;html=1;outlineConnect=0;" vertex="1" parent="1">
          <mxGeometry x="240" y="770" width="30" height="60" as="geometry" />
        </mxCell>
        <mxCell id="owy4EGWpPWJeNhBLW80_-52" value="Make Payment" style="ellipse;whiteSpace=wrap;html=1;" vertex="1" parent="1">
          <mxGeometry x="415" y="150" width="110" height="40" as="geometry" />
        </mxCell>
        <mxCell id="owy4EGWpPWJeNhBLW80_-53" value="Billing System" style="shape=umlActor;verticalLabelPosition=bottom;verticalAlign=top;html=1;outlineConnect=0;" vertex="1" parent="1">
          <mxGeometry x="690" y="230" width="30" height="60" as="geometry" />
        </mxCell>
        <mxCell id="owy4EGWpPWJeNhBLW80_-54" style="edgeStyle=none;shape=connector;rounded=0;orthogonalLoop=1;jettySize=auto;html=1;exitX=1;exitY=0.5;exitDx=0;exitDy=0;labelBackgroundColor=default;strokeColor=default;align=center;verticalAlign=middle;fontFamily=Helvetica;fontSize=11;fontColor=default;endArrow=none;entryX=0.5;entryY=0.5;entryDx=0;entryDy=0;entryPerimeter=0;" edge="1" parent="1" source="owy4EGWpPWJeNhBLW80_-55" target="owy4EGWpPWJeNhBLW80_-53">
          <mxGeometry relative="1" as="geometry">
            <mxPoint x="680" y="300.0000000000002" as="targetPoint" />
          </mxGeometry>
        </mxCell>
        <mxCell id="owy4EGWpPWJeNhBLW80_-55" value="Recieve Reciept" style="ellipse;whiteSpace=wrap;html=1;" vertex="1" parent="1">
          <mxGeometry x="412.5" y="210" width="110" height="40" as="geometry" />
        </mxCell>
        <mxCell id="owy4EGWpPWJeNhBLW80_-56" value="Select Insurance" style="ellipse;whiteSpace=wrap;html=1;" vertex="1" parent="1">
          <mxGeometry x="230" y="70" width="110" height="40" as="geometry" />
        </mxCell>
        <mxCell id="owy4EGWpPWJeNhBLW80_-57" value="extends" style="edgeStyle=orthogonalEdgeStyle;rounded=0;orthogonalLoop=1;jettySize=auto;html=1;exitX=1;exitY=1;exitDx=0;exitDy=0;entryX=0.199;entryY=-0.056;entryDx=0;entryDy=0;entryPerimeter=0;dashed=1;" edge="1" parent="1" source="owy4EGWpPWJeNhBLW80_-56" target="owy4EGWpPWJeNhBLW80_-52">
          <mxGeometry relative="1" as="geometry" />
        </mxCell>
        <mxCell id="owy4EGWpPWJeNhBLW80_-58" value="" style="endArrow=none;html=1;rounded=0;exitX=0.5;exitY=0.5;exitDx=0;exitDy=0;exitPerimeter=0;entryX=0;entryY=0.5;entryDx=0;entryDy=0;" edge="1" parent="1" source="owy4EGWpPWJeNhBLW80_-46" target="owy4EGWpPWJeNhBLW80_-52">
          <mxGeometry width="50" height="50" relative="1" as="geometry">
            <mxPoint x="410" y="380" as="sourcePoint" />
            <mxPoint x="460" y="330" as="targetPoint" />
          </mxGeometry>
        </mxCell>
        <mxCell id="owy4EGWpPWJeNhBLW80_-59" style="edgeStyle=none;shape=connector;rounded=0;orthogonalLoop=1;jettySize=auto;html=1;exitX=1;exitY=0.5;exitDx=0;exitDy=0;entryX=0.5;entryY=0.5;entryDx=0;entryDy=0;entryPerimeter=0;labelBackgroundColor=default;strokeColor=default;align=center;verticalAlign=middle;fontFamily=Helvetica;fontSize=11;fontColor=default;endArrow=none;" edge="1" parent="1" source="owy4EGWpPWJeNhBLW80_-52" target="owy4EGWpPWJeNhBLW80_-53">
          <mxGeometry relative="1" as="geometry" />
        </mxCell>
        <mxCell id="owy4EGWpPWJeNhBLW80_-60" value="Browse Flights" style="ellipse;whiteSpace=wrap;html=1;" vertex="1" parent="1">
          <mxGeometry x="390" y="410" width="110" height="40" as="geometry" />
        </mxCell>
        <mxCell id="owy4EGWpPWJeNhBLW80_-61" value="Browse Seats" style="ellipse;whiteSpace=wrap;html=1;" vertex="1" parent="1">
          <mxGeometry x="390" y="480" width="110" height="40" as="geometry" />
        </mxCell>
        <mxCell id="owy4EGWpPWJeNhBLW80_-62" value="Database" style="shape=umlActor;verticalLabelPosition=bottom;verticalAlign=top;html=1;outlineConnect=0;fontFamily=Helvetica;fontSize=11;fontColor=default;" vertex="1" parent="1">
          <mxGeometry x="740" y="410" width="30" height="60" as="geometry" />
        </mxCell>
        <mxCell id="owy4EGWpPWJeNhBLW80_-63" value="extends" style="edgeStyle=orthogonalEdgeStyle;rounded=0;orthogonalLoop=1;jettySize=auto;html=1;endArrow=classic;endFill=1;dashed=1;" edge="1" parent="1" source="owy4EGWpPWJeNhBLW80_-64" target="owy4EGWpPWJeNhBLW80_-60">
          <mxGeometry relative="1" as="geometry" />
        </mxCell>
        <mxCell id="owy4EGWpPWJeNhBLW80_-64" value="Select Flights" style="ellipse;whiteSpace=wrap;html=1;" vertex="1" parent="1">
          <mxGeometry x="390" y="330" width="110" height="40" as="geometry" />
        </mxCell>
        <mxCell id="owy4EGWpPWJeNhBLW80_-65" value="extends" style="edgeStyle=orthogonalEdgeStyle;rounded=0;orthogonalLoop=1;jettySize=auto;html=1;endArrow=classic;endFill=1;dashed=1;" edge="1" parent="1" source="owy4EGWpPWJeNhBLW80_-66" target="owy4EGWpPWJeNhBLW80_-61">
          <mxGeometry relative="1" as="geometry">
            <mxPoint x="645" y="379.91999999999996" as="sourcePoint" />
            <mxPoint x="480" y="509.92" as="targetPoint" />
            <Array as="points">
              <mxPoint x="550" y="380" />
              <mxPoint x="550" y="480" />
              <mxPoint x="455" y="480" />
            </Array>
          </mxGeometry>
        </mxCell>
        <mxCell id="owy4EGWpPWJeNhBLW80_-66" value="Select Seats" style="ellipse;whiteSpace=wrap;html=1;" vertex="1" parent="1">
          <mxGeometry x="620" y="360" width="110" height="40" as="geometry" />
        </mxCell>
        <mxCell id="owy4EGWpPWJeNhBLW80_-67" style="edgeStyle=none;shape=connector;rounded=0;orthogonalLoop=1;jettySize=auto;html=1;exitX=1;exitY=0.5;exitDx=0;exitDy=0;entryX=0.5;entryY=0.5;entryDx=0;entryDy=0;entryPerimeter=0;labelBackgroundColor=default;strokeColor=default;align=center;verticalAlign=middle;fontFamily=Helvetica;fontSize=11;fontColor=default;endArrow=none;" edge="1" parent="1" source="owy4EGWpPWJeNhBLW80_-61" target="owy4EGWpPWJeNhBLW80_-62">
          <mxGeometry relative="1" as="geometry" />
        </mxCell>
        <mxCell id="owy4EGWpPWJeNhBLW80_-68" style="edgeStyle=none;shape=connector;rounded=0;orthogonalLoop=1;jettySize=auto;html=1;entryX=0.5;entryY=0.5;entryDx=0;entryDy=0;entryPerimeter=0;labelBackgroundColor=default;strokeColor=default;align=center;verticalAlign=middle;fontFamily=Helvetica;fontSize=11;fontColor=default;endArrow=none;" edge="1" parent="1" source="owy4EGWpPWJeNhBLW80_-60" target="owy4EGWpPWJeNhBLW80_-62">
          <mxGeometry relative="1" as="geometry">
            <mxPoint x="520" y="470" as="sourcePoint" />
            <mxPoint x="795" y="444.91999999999996" as="targetPoint" />
          </mxGeometry>
        </mxCell>
        <mxCell id="owy4EGWpPWJeNhBLW80_-69" value="" style="endArrow=none;html=1;rounded=0;entryX=0.5;entryY=0.5;entryDx=0;entryDy=0;entryPerimeter=0;" edge="1" parent="1" source="owy4EGWpPWJeNhBLW80_-42" target="owy4EGWpPWJeNhBLW80_-46">
          <mxGeometry width="50" height="50" relative="1" as="geometry">
            <mxPoint x="130" y="540" as="sourcePoint" />
            <mxPoint x="180" y="490" as="targetPoint" />
          </mxGeometry>
        </mxCell>
        <mxCell id="owy4EGWpPWJeNhBLW80_-70" value="" style="endArrow=none;html=1;rounded=0;entryX=0.5;entryY=0.5;entryDx=0;entryDy=0;entryPerimeter=0;" edge="1" parent="1" source="owy4EGWpPWJeNhBLW80_-60" target="owy4EGWpPWJeNhBLW80_-46">
          <mxGeometry width="50" height="50" relative="1" as="geometry">
            <mxPoint x="300" y="530" as="sourcePoint" />
            <mxPoint x="350" y="480" as="targetPoint" />
          </mxGeometry>
        </mxCell>
        <mxCell id="owy4EGWpPWJeNhBLW80_-71" value="Receive Ticket" style="ellipse;whiteSpace=wrap;html=1;" vertex="1" parent="1">
          <mxGeometry x="412.5" y="260" width="115" height="40" as="geometry" />
        </mxCell>
        <mxCell id="owy4EGWpPWJeNhBLW80_-72" value="" style="endArrow=none;html=1;rounded=0;exitX=0.5;exitY=0.5;exitDx=0;exitDy=0;exitPerimeter=0;" edge="1" parent="1" source="owy4EGWpPWJeNhBLW80_-46" target="owy4EGWpPWJeNhBLW80_-61">
          <mxGeometry width="50" height="50" relative="1" as="geometry">
            <mxPoint x="420" y="580" as="sourcePoint" />
            <mxPoint x="470" y="530" as="targetPoint" />
          </mxGeometry>
        </mxCell>
        <mxCell id="owy4EGWpPWJeNhBLW80_-73" value="Update Database" style="ellipse;whiteSpace=wrap;html=1;" vertex="1" parent="1">
          <mxGeometry x="420" y="780" width="100" height="40" as="geometry" />
        </mxCell>
        <mxCell id="owy4EGWpPWJeNhBLW80_-74" value="Browse Passengers" style="ellipse;whiteSpace=wrap;html=1;" vertex="1" parent="1">
          <mxGeometry x="410" y="630" width="100" height="40" as="geometry" />
        </mxCell>
        <mxCell id="owy4EGWpPWJeNhBLW80_-75" value="Browse Database" style="ellipse;whiteSpace=wrap;html=1;" vertex="1" parent="1">
          <mxGeometry x="420" y="720" width="100" height="40" as="geometry" />
        </mxCell>
        <mxCell id="owy4EGWpPWJeNhBLW80_-76" value="Cancel Flights" style="ellipse;whiteSpace=wrap;html=1;" vertex="1" parent="1">
          <mxGeometry x="400" y="550" width="100" height="40" as="geometry" />
        </mxCell>
        <mxCell id="owy4EGWpPWJeNhBLW80_-77" value="" style="endArrow=none;html=1;rounded=0;exitX=0.5;exitY=0.5;exitDx=0;exitDy=0;exitPerimeter=0;" edge="1" parent="1" source="owy4EGWpPWJeNhBLW80_-48" target="owy4EGWpPWJeNhBLW80_-76">
          <mxGeometry width="50" height="50" relative="1" as="geometry">
            <mxPoint x="350" y="680" as="sourcePoint" />
            <mxPoint x="400" y="630" as="targetPoint" />
          </mxGeometry>
        </mxCell>
        <mxCell id="owy4EGWpPWJeNhBLW80_-78" style="edgeStyle=none;shape=connector;rounded=0;orthogonalLoop=1;jettySize=auto;html=1;labelBackgroundColor=default;strokeColor=default;align=center;verticalAlign=middle;fontFamily=Helvetica;fontSize=11;fontColor=default;endArrow=none;exitX=1;exitY=0.5;exitDx=0;exitDy=0;" edge="1" parent="1" source="owy4EGWpPWJeNhBLW80_-73">
          <mxGeometry relative="1" as="geometry">
            <mxPoint x="610" y="845" as="sourcePoint" />
            <mxPoint x="755" y="440" as="targetPoint" />
          </mxGeometry>
        </mxCell>
        <mxCell id="owy4EGWpPWJeNhBLW80_-79" value="" style="endArrow=none;html=1;rounded=0;entryX=0.5;entryY=0.5;entryDx=0;entryDy=0;entryPerimeter=0;" edge="1" parent="1" source="owy4EGWpPWJeNhBLW80_-76" target="owy4EGWpPWJeNhBLW80_-62">
          <mxGeometry width="50" height="50" relative="1" as="geometry">
            <mxPoint x="600" y="590" as="sourcePoint" />
            <mxPoint x="650" y="540" as="targetPoint" />
          </mxGeometry>
        </mxCell>
        <mxCell id="owy4EGWpPWJeNhBLW80_-80" value="" style="endArrow=none;html=1;rounded=0;entryX=0.5;entryY=0.5;entryDx=0;entryDy=0;entryPerimeter=0;" edge="1" parent="1" source="owy4EGWpPWJeNhBLW80_-74" target="owy4EGWpPWJeNhBLW80_-62">
          <mxGeometry width="50" height="50" relative="1" as="geometry">
            <mxPoint x="580" y="640" as="sourcePoint" />
            <mxPoint x="630" y="590" as="targetPoint" />
          </mxGeometry>
        </mxCell>
        <mxCell id="owy4EGWpPWJeNhBLW80_-81" style="edgeStyle=none;shape=connector;rounded=0;orthogonalLoop=1;jettySize=auto;html=1;exitX=1;exitY=1;exitDx=0;exitDy=0;labelBackgroundColor=default;strokeColor=default;align=center;verticalAlign=middle;fontFamily=Helvetica;fontSize=11;fontColor=default;endArrow=none;exitPerimeter=0;entryX=0;entryY=0.5;entryDx=0;entryDy=0;" edge="1" parent="1" target="owy4EGWpPWJeNhBLW80_-75">
          <mxGeometry relative="1" as="geometry">
            <mxPoint x="270" y="790" as="sourcePoint" />
            <mxPoint x="490" y="820" as="targetPoint" />
          </mxGeometry>
        </mxCell>
        <mxCell id="owy4EGWpPWJeNhBLW80_-82" value="" style="endArrow=none;html=1;rounded=0;exitX=0.5;exitY=0.5;exitDx=0;exitDy=0;exitPerimeter=0;" edge="1" parent="1" source="owy4EGWpPWJeNhBLW80_-49" target="owy4EGWpPWJeNhBLW80_-74">
          <mxGeometry width="50" height="50" relative="1" as="geometry">
            <mxPoint x="320" y="710" as="sourcePoint" />
            <mxPoint x="370" y="660" as="targetPoint" />
          </mxGeometry>
        </mxCell>
        <mxCell id="owy4EGWpPWJeNhBLW80_-83" style="edgeStyle=none;shape=connector;rounded=0;orthogonalLoop=1;jettySize=auto;html=1;labelBackgroundColor=default;strokeColor=default;align=center;verticalAlign=middle;fontFamily=Helvetica;fontSize=11;fontColor=default;endArrow=none;exitX=1;exitY=0.5;exitDx=0;exitDy=0;" edge="1" parent="1" source="owy4EGWpPWJeNhBLW80_-75">
          <mxGeometry relative="1" as="geometry">
            <mxPoint x="600" y="870" as="sourcePoint" />
            <mxPoint x="750" y="440" as="targetPoint" />
          </mxGeometry>
        </mxCell>
        <mxCell id="owy4EGWpPWJeNhBLW80_-84" style="edgeStyle=none;shape=connector;rounded=0;orthogonalLoop=1;jettySize=auto;html=1;exitX=1;exitY=0.5;exitDx=0;exitDy=0;entryX=0.5;entryY=0.5;entryDx=0;entryDy=0;entryPerimeter=0;labelBackgroundColor=default;strokeColor=default;align=center;verticalAlign=middle;fontFamily=Helvetica;fontSize=11;fontColor=default;endArrow=none;" edge="1" parent="1" source="owy4EGWpPWJeNhBLW80_-71" target="owy4EGWpPWJeNhBLW80_-53">
          <mxGeometry relative="1" as="geometry" />
        </mxCell>
      </root>
    </mxGraphModel>
  </diagram>
</mxfile>
